<svg width="89" height="20" viewBox="0 0 89 20" fill="none" xmlns="http://www.w3.org/2000/svg">
<path d="M0.992 19V2.2H8.264C9.768 2.2 11.064 2.448 12.152 2.944C13.24 3.424 14.08 4.12 14.672 5.032C15.264 5.944 15.56 7.032 15.56 8.296C15.56 9.544 15.264 10.624 14.672 11.536C14.08 12.432 13.24 13.12 12.152 13.6C11.064 14.08 9.768 14.32 8.264 14.32H3.152L4.88 12.616V19H0.992ZM11.672 19L7.472 12.904H11.624L15.872 19H11.672ZM4.88 13.048L3.152 11.224H8.048C9.248 11.224 10.144 10.968 10.736 10.456C11.328 9.928 11.624 9.208 11.624 8.296C11.624 7.368 11.328 6.648 10.736 6.136C10.144 5.624 9.248 5.368 8.048 5.368H3.152L4.88 3.52V13.048ZM24.8844 19.192C23.4124 19.192 22.1164 18.904 20.9964 18.328C19.8924 17.752 19.0364 16.968 18.4284 15.976C17.8204 14.968 17.5164 13.824 17.5164 12.544C17.5164 11.248 17.8124 10.104 18.4044 9.112C19.0124 8.104 19.8364 7.32 20.8764 6.76C21.9164 6.184 23.0924 5.896 24.4044 5.896C25.6684 5.896 26.8044 6.168 27.8124 6.712C28.8364 7.24 29.6444 8.008 30.2364 9.016C30.8284 10.008 31.1244 11.2 31.1244 12.592C31.1244 12.736 31.1164 12.904 31.1004 13.096C31.0844 13.272 31.0684 13.44 31.0524 13.6H20.5644V11.416H29.0844L27.6444 12.064C27.6444 11.392 27.5084 10.808 27.2364 10.312C26.9644 9.816 26.5884 9.432 26.1084 9.16C25.6284 8.872 25.0684 8.728 24.4284 8.728C23.7884 8.728 23.2204 8.872 22.7244 9.16C22.2444 9.432 21.8684 9.824 21.5964 10.336C21.3244 10.832 21.1884 11.424 21.1884 12.112V12.688C21.1884 13.392 21.3404 14.016 21.6444 14.56C21.9644 15.088 22.4044 15.496 22.9644 15.784C23.5404 16.056 24.2124 16.192 24.9804 16.192C25.6684 16.192 26.2684 16.088 26.7804 15.88C27.3084 15.672 27.7884 15.36 28.2204 14.944L30.2124 17.104C29.6204 17.776 28.8764 18.296 27.9804 18.664C27.0844 19.016 26.0524 19.192 24.8844 19.192ZM33.7171 19V1.192H37.4611V19H33.7171ZM44.5398 19L39.1158 6.088H42.9798L47.4918 17.2H45.5718L50.2518 6.088H53.8518L48.4038 19H44.5398ZM55.4796 19V6.088H59.2236V19H55.4796ZM57.3516 4.288C56.6636 4.288 56.1036 4.088 55.6716 3.688C55.2396 3.288 55.0236 2.792 55.0236 2.2C55.0236 1.608 55.2396 1.112 55.6716 0.711999C56.1036 0.311999 56.6636 0.111999 57.3516 0.111999C58.0396 0.111999 58.5996 0.303999 59.0316 0.688C59.4636 1.056 59.6796 1.536 59.6796 2.128C59.6796 2.752 59.4636 3.272 59.0316 3.688C58.6156 4.088 58.0556 4.288 57.3516 4.288ZM67.1423 19.192C66.0383 19.192 64.9743 19.064 63.9503 18.808C62.9423 18.536 62.1423 18.2 61.5503 17.8L62.7983 15.112C63.3903 15.48 64.0863 15.784 64.8863 16.024C65.7023 16.248 66.5023 16.36 67.2863 16.36C68.1503 16.36 68.7583 16.256 69.1103 16.048C69.4783 15.84 69.6623 15.552 69.6623 15.184C69.6623 14.88 69.5183 14.656 69.2303 14.512C68.9583 14.352 68.5903 14.232 68.1263 14.152C67.6623 14.072 67.1503 13.992 66.5903 13.912C66.0463 13.832 65.4943 13.728 64.9343 13.6C64.3743 13.456 63.8623 13.248 63.3983 12.976C62.9343 12.704 62.5583 12.336 62.2703 11.872C61.9983 11.408 61.8623 10.808 61.8623 10.072C61.8623 9.256 62.0943 8.536 62.5583 7.912C63.0383 7.288 63.7263 6.8 64.6223 6.448C65.5183 6.08 66.5903 5.896 67.8383 5.896C68.7183 5.896 69.6143 5.992 70.5263 6.184C71.4383 6.376 72.1983 6.656 72.8063 7.024L71.5583 9.688C70.9343 9.32 70.3023 9.072 69.6623 8.944C69.0383 8.8 68.4303 8.728 67.8383 8.728C67.0063 8.728 66.3983 8.84 66.0143 9.064C65.6303 9.288 65.4383 9.576 65.4383 9.928C65.4383 10.248 65.5743 10.488 65.8463 10.648C66.1343 10.808 66.5103 10.936 66.9743 11.032C67.4383 11.128 67.9423 11.216 68.4863 11.296C69.0463 11.36 69.6063 11.464 70.1663 11.608C70.7263 11.752 71.2303 11.96 71.6783 12.232C72.1423 12.488 72.5183 12.848 72.8063 13.312C73.0943 13.76 73.2383 14.352 73.2383 15.088C73.2383 15.888 72.9983 16.6 72.5183 17.224C72.0383 17.832 71.3423 18.312 70.4303 18.664C69.5343 19.016 68.4383 19.192 67.1423 19.192ZM82.0563 19.192C80.5843 19.192 79.2883 18.904 78.1683 18.328C77.0643 17.752 76.2083 16.968 75.6003 15.976C74.9923 14.968 74.6883 13.824 74.6883 12.544C74.6883 11.248 74.9843 10.104 75.5763 9.112C76.1843 8.104 77.0083 7.32 78.0483 6.76C79.0883 6.184 80.2643 5.896 81.5763 5.896C82.8403 5.896 83.9763 6.168 84.9843 6.712C86.0083 7.24 86.8163 8.008 87.4083 9.016C88.0003 10.008 88.2963 11.2 88.2963 12.592C88.2963 12.736 88.2883 12.904 88.2723 13.096C88.2563 13.272 88.2403 13.44 88.2243 13.6H77.7363V11.416H86.2563L84.8163 12.064C84.8163 11.392 84.6803 10.808 84.4083 10.312C84.1363 9.816 83.7603 9.432 83.2803 9.16C82.8003 8.872 82.2403 8.728 81.6003 8.728C80.9603 8.728 80.3923 8.872 79.8963 9.16C79.4163 9.432 79.0403 9.824 78.7683 10.336C78.4963 10.832 78.3603 11.424 78.3603 12.112V12.688C78.3603 13.392 78.5123 14.016 78.8163 14.56C79.1363 15.088 79.5763 15.496 80.1363 15.784C80.7123 16.056 81.3843 16.192 82.1523 16.192C82.8403 16.192 83.4403 16.088 83.9523 15.88C84.4803 15.672 84.9603 15.36 85.3923 14.944L87.3843 17.104C86.7923 17.776 86.0483 18.296 85.1523 18.664C84.2563 19.016 83.2243 19.192 82.0563 19.192Z" fill="#252B42"/>
</svg>
